# Blender v2.82 (sub 7) OBJ File: ''
# www.blender.org
mtllib basicsword.mtl
o sword
v -0.063925 0.282055 -0.078917
v -0.047830 0.276432 -0.078917
v -0.063925 0.282055 -0.069624
v -0.056921 0.436657 -0.078917
v -0.081124 0.450851 -0.078917
v -0.081124 0.450851 -0.010756
v -0.056921 0.436657 -0.022688
v -0.118806 0.320866 -0.078917
v -0.091584 0.298276 -0.078917
v -0.091584 0.298276 -0.053655
v -0.096197 0.302104 -0.050992
v -0.118806 0.320866 0.078917
v -0.096197 0.302104 0.050992
v -0.091584 0.298276 0.053655
v -0.091584 0.298276 0.078917
v -0.007876 0.425258 -0.078917
v -0.032462 0.428111 -0.078917
v -0.032462 0.428111 -0.034826
v -0.007876 0.425258 -0.047106
v -0.007876 0.425258 0.047106
v -0.032462 0.428111 0.034826
v -0.032462 0.428111 0.078917
v -0.007876 0.425258 0.078917
v 0.016711 0.428111 0.078917
v 0.016711 0.428111 0.034826
v 0.041170 0.436657 0.078917
v 0.041170 0.436657 0.022688
v -0.056921 0.436657 0.022688
v -0.081124 0.450851 0.010756
v -0.081124 0.450851 0.078917
v -0.056921 0.436657 0.078917
v -0.063925 0.282055 0.069624
v -0.063925 0.282055 0.078917
v -0.047830 0.276432 0.078917
v -0.103089 0.469079 0.000000
v -0.104944 0.470618 -0.078917
v -0.104944 0.470618 0.078917
v 0.048174 0.282055 -0.078917
v 0.075833 0.298276 -0.078917
v 0.075833 0.298276 -0.053655
v 0.048174 0.282055 -0.069624
v 0.103055 0.320866 -0.078917
v 0.103055 0.320866 0.078917
v 0.080445 0.302104 -0.050992
v 0.080445 0.302104 0.050992
v 0.075833 0.298276 0.053655
v 0.075833 0.298276 0.078917
v 0.041170 0.436657 -0.078917
v 0.016711 0.428111 -0.078917
v 0.016711 0.428111 -0.034826
v 0.041170 0.436657 -0.022688
v 0.060992 -0.338022 0.039761
v 0.060992 -0.338022 -0.039761
v 0.060992 -0.253709 -0.039761
v 0.060992 -0.253709 0.039761
v -0.150945 0.526433 -0.078917
v -0.169756 0.382468 -0.078917
v -0.169756 0.382468 0.078917
v -0.150945 0.526433 0.078917
v -0.145449 0.349708 -0.078917
v -0.145449 0.349708 0.078917
v 0.080445 0.225556 0.050992
v 0.080445 0.225556 -0.050992
v -0.007876 -0.338022 -0.079522
v -0.007876 -0.253709 -0.079522
v -0.047830 0.225556 -0.078917
v 0.032079 0.225556 -0.078917
v -0.007876 0.225556 -0.068202
v 0.051189 0.225556 -0.034101
v 0.051189 0.225556 0.034101
v -0.007876 0.225556 0.068202
v 0.032079 0.225556 0.078917
v -0.096197 0.225556 -0.050992
v -0.066940 0.225556 -0.034101
v -0.096197 0.225556 0.050992
v -0.066940 0.225556 0.034101
v -0.047830 0.225556 0.078917
v 0.032079 0.276432 -0.078917
v 0.135194 0.526433 -0.078917
v 0.112508 0.495856 -0.078917
v 0.112508 0.495856 0.078917
v 0.135194 0.526433 0.078917
v -0.128259 0.495856 -0.078917
v -0.128259 0.495856 0.078917
v 0.135194 0.357114 -0.078917
v 0.154004 0.382468 -0.078917
v 0.154004 0.382468 0.078917
v 0.129698 0.349708 -0.078917
v 0.129698 0.349708 0.078917
v 0.135194 0.357114 0.078917
v 0.089193 0.470618 -0.078917
v 0.089193 0.470618 0.078917
v -0.150945 0.357114 -0.078917
v -0.150945 0.357114 0.078917
v 0.048174 0.282055 0.069624
v 0.048174 0.282055 0.078917
v 0.032079 0.276432 0.078917
v 0.065373 0.450851 -0.078917
v 0.065373 0.450851 0.078917
v 0.065373 0.450851 0.010756
v 0.065373 0.450851 -0.010756
v -0.076743 -0.253709 0.039761
v -0.076743 -0.338022 0.039761
v -0.007876 -0.338022 0.079522
v -0.007876 -0.253709 0.079522
v 0.087338 0.469079 -0.000000
v -0.007876 -0.253709 -0.056023
v -0.076743 -0.253709 -0.039761
v -0.056393 -0.253709 -0.028012
v -0.056393 -0.253709 0.028012
v -0.007876 -0.253709 0.056023
v 0.040642 -0.253709 -0.028012
v 0.040642 -0.253709 0.028012
v -0.076743 -0.338022 -0.039761
v -0.136030 1.673083 0.000000
v -0.007875 2.334936 -0.000000
v -0.007875 1.673083 -0.064212
v 0.120280 1.673083 -0.000000
v -0.007875 1.673083 0.064212
vt 0.168531 0.976218
vt 0.168531 0.993720
vt 0.158633 0.976218
vt 0.000410 0.655672
vt 0.000410 0.629892
vt 0.074533 0.629892
vt 0.061557 0.655672
vt 0.168531 0.916536
vt 0.168531 0.946140
vt 0.141623 0.946140
vt 0.138786 0.941123
vt 0.000410 0.916536
vt 0.030155 0.941123
vt 0.027318 0.946140
vt 0.000410 0.946140
vt 0.000410 0.707914
vt 0.000410 0.681725
vt 0.048358 0.681725
vt 0.035003 0.707914
vt 0.137457 0.707914
vt 0.124103 0.681725
vt 0.172050 0.681725
vt 0.172050 0.707914
vt 0.172050 0.734104
vt 0.124103 0.734104
vt 0.172050 0.760157
vt 0.110903 0.760157
vt 0.110903 0.655672
vt 0.097927 0.629892
vt 0.172050 0.629892
vt 0.172050 0.655672
vt 0.010308 0.976218
vt 0.000410 0.976218
vt 0.000410 0.993720
vt 0.086230 0.606495
vt 0.000410 0.604519
vt 0.172050 0.604519
vt 0.944536 0.727581
vt 0.914457 0.727581
vt 0.914457 0.700673
vt 0.944536 0.717683
vt 0.884854 0.727581
vt 0.884854 0.559460
vt 0.909441 0.697837
vt 0.909441 0.589205
vt 0.914457 0.586368
vt 0.914457 0.559460
vt 0.000410 0.760157
vt 0.000410 0.734104
vt 0.048358 0.734104
vt 0.061557 0.760157
vt 0.815809 0.537536
vt 0.815809 0.452832
vt 0.852408 0.452832
vt 0.852408 0.537536
vt 0.500179 0.723640
vt 0.436365 0.723640
vt 0.436365 0.555520
vt 0.500179 0.555520
vt 0.168531 0.887562
vt 0.000410 0.887562
vt 0.439895 0.980626
vt 0.439895 0.871994
vt 0.473123 0.871994
vt 0.473123 0.980626
vt 0.999533 0.638885
vt 0.962858 0.638877
vt 0.962915 0.559460
vt 0.999590 0.559468
vt 0.532965 0.696097
vt 0.532965 0.610979
vt 0.563332 0.559460
vt 0.544617 0.653538
vt 0.581701 0.590623
vt 0.674238 0.559460
vt 0.655869 0.590624
vt 0.692953 0.653538
vt 0.704605 0.610979
vt 0.563332 0.747616
vt 0.581701 0.716453
vt 0.674238 0.747616
vt 0.655869 0.716453
vt 0.704605 0.696097
vt 0.962038 0.727581
vt 0.000410 0.860309
vt 0.000410 0.836144
vt 0.172050 0.836144
vt 0.172050 0.860309
vt 0.000410 0.579685
vt 0.000410 0.555520
vt 0.172050 0.555520
vt 0.172050 0.579685
vt 0.849903 0.727581
vt 0.829447 0.727581
vt 0.829447 0.559460
vt 0.855879 0.727581
vt 0.855879 0.559460
vt 0.235494 0.900383
vt 0.246522 0.880346
vt 0.249744 0.874492
vt 0.000410 0.811310
vt 0.172050 0.811310
vt 0.168531 0.881586
vt 0.168531 0.861130
vt 0.000410 0.861130
vt 0.249744 0.581410
vt 0.246522 0.575556
vt 0.235494 0.555520
vt 0.944536 0.569358
vt 0.944536 0.559460
vt 0.962038 0.559460
vt 0.270509 0.633873
vt 0.303806 0.633873
vt 0.303749 0.685392
vt 0.272169 0.638787
vt 0.279191 0.668249
vt 0.281618 0.685392
vt 0.361893 0.575271
vt 0.372921 0.555520
vt 0.435545 0.575286
vt 0.422244 0.599107
vt 0.358671 0.581041
vt 0.346125 0.609017
vt 0.411266 0.623587
vt 0.336299 0.637601
vt 0.402667 0.648600
vt 0.329243 0.666645
vt 0.396493 0.674014
vt 0.326797 0.683546
vt 0.392776 0.699698
vt 0.304666 0.683541
vt 0.304666 0.767455
vt 0.391535 0.725517
vt 0.392776 0.751336
vt 0.326797 0.767460
vt 0.396493 0.777021
vt 0.329243 0.784361
vt 0.402667 0.802438
vt 0.336299 0.813408
vt 0.411266 0.827454
vt 0.346125 0.841997
vt 0.422244 0.851939
vt 0.358671 0.869978
vt 0.435545 0.875766
vt 0.361893 0.875750
vt 0.372921 0.895506
vt 0.974317 0.805214
vt 0.974317 0.973334
vt 0.910503 0.973334
vt 0.910503 0.805214
vt 0.303749 0.770510
vt 0.215639 0.701762
vt 0.216880 0.727951
vt 0.215639 0.754141
vt 0.281618 0.770510
vt 0.211922 0.780193
vt 0.279172 0.787654
vt 0.205748 0.805974
vt 0.272116 0.817115
vt 0.197149 0.831347
vt 0.262290 0.846112
vt 0.186171 0.856181
vt 0.172870 0.880346
vt 0.211922 0.675709
vt 0.279172 0.668249
vt 0.205748 0.649929
vt 0.272116 0.638787
vt 0.197149 0.624555
vt 0.262290 0.609790
vt 0.186171 0.599721
vt 0.172870 0.575556
vt 0.172050 0.785937
vt 0.097927 0.785937
vt 0.000410 0.785937
vt 0.074533 0.785937
vt 0.436448 0.724461
vt 0.473123 0.724461
vt 0.473040 0.797817
vt 0.436365 0.797817
vt 0.086230 0.809334
vt 0.303806 0.822029
vt 0.279191 0.787654
vt 0.272169 0.817115
vt 0.270509 0.822029
vt 0.941496 0.117687
vt 0.963283 0.130790
vt 0.889552 0.172486
vt 0.889552 0.147062
vt 0.815820 0.128144
vt 0.837608 0.115823
vt 0.837608 0.055209
vt 0.815820 0.042106
vt 0.963283 0.044752
vt 0.941496 0.057073
vt 0.889552 0.000410
vt 0.889552 0.025834
vt 0.304627 0.637735
vt 0.337924 0.637742
vt 0.336263 0.642111
vt 0.329230 0.668304
vt 0.304627 0.823230
vt 0.329230 0.786020
vt 0.336263 0.817917
vt 0.337924 0.823237
vt 0.852419 0.173307
vt 0.852419 0.258011
vt 0.815820 0.258011
vt 0.815820 0.173307
vt 0.473123 0.871174
vt 0.436448 0.871174
vt 0.997321 0.279935
vt 0.997321 0.388567
vt 0.964093 0.388567
vt 0.964093 0.279935
vt 0.999590 0.704106
vt 0.962915 0.704099
vt 0.909644 0.872577
vt 0.705425 0.874752
vt 0.705473 0.805214
vt 0.909683 0.815457
vt 0.909683 0.919488
vt 0.705473 0.931860
vt 0.375920 0.907825
vt 0.375920 0.968749
vt 0.172870 0.975371
vt 0.172870 0.901203
vt 0.500322 0.812668
vt 0.500391 0.748437
vt 0.704605 0.759906
vt 0.704548 0.812668
vt 0.500322 0.945266
vt 0.500322 0.884342
vt 0.703372 0.877720
vt 0.703372 0.951888
vt 0.704605 0.865430
vt 0.500391 0.876900
vt 0.815000 0.275174
vt 0.532977 0.136948
vt 0.814911 0.149493
vt 0.828627 0.559460
vt 0.828627 0.714204
vt 0.705425 0.804393
vt 0.705425 0.649650
vt 0.532965 0.418492
vt 0.814858 0.419287
vt 0.814989 0.558640
vt 0.815000 0.000410
vt 0.814989 0.279935
vt 0.532156 0.139763
vt 0.000410 0.137765
vt 0.001626 0.111035
vt 0.532156 0.000410
vt 0.005268 0.084453
vt 0.011316 0.058158
vt 0.019084 0.034303
vt 0.000410 0.407458
vt 0.532145 0.405616
vt 0.532145 0.554699
vt 0.001626 0.436056
vt 0.005268 0.464496
vt 0.011316 0.492630
vt 0.019083 0.518156
vt 0.531896 0.279115
vt 0.018890 0.241368
vt 0.011167 0.217454
vt 0.005168 0.191114
vt 0.001576 0.164505
vt 0.018962 0.314018
vt 0.531981 0.279935
vt 0.011222 0.335586
vt 0.005205 0.359343
vt 0.001595 0.383342
vt 0.963272 0.324277
vt 0.963272 0.410315
vt 0.889541 0.452011
vt 0.815809 0.407669
vt 0.889541 0.279935
vt 0.815809 0.321631
vn -0.4198 -0.9076 0.0000
vn -0.3299 -0.9440 0.0000
vn -0.4470 -0.8945 0.0000
vn 0.4198 0.9076 -0.0000
vn 0.5741 0.8188 0.0000
vn 0.5904 0.8071 0.0000
vn 0.4436 0.8962 -0.0000
vn -0.6881 -0.7256 -0.0000
vn -0.5741 -0.8188 0.0000
vn -0.5929 -0.8053 -0.0000
vn -0.6386 -0.7695 -0.0000
vn -0.0000 1.0000 0.0000
vn 0.2239 0.9746 0.0000
vn 0.2549 0.9670 -0.0000
vn -0.2239 0.9746 -0.0000
vn -0.2549 0.9670 0.0000
vn -0.4198 0.9076 -0.0000
vn -0.4436 0.8962 0.0000
vn 0.6386 0.7695 -0.0000
vn 0.6881 0.7256 0.0000
vn 0.4198 -0.9076 0.0000
vn 0.5741 -0.8188 0.0000
vn 0.5929 -0.8053 0.0000
vn 0.4470 -0.8945 0.0000
vn 0.6881 -0.7256 0.0000
vn 0.6382 -0.7698 0.0001
vn 0.6386 -0.7695 -0.0000
vn 1.0000 -0.0000 -0.0000
vn -0.9916 0.1296 0.0000
vn -0.7699 -0.6381 0.0000
vn 0.5000 -0.0000 -0.8660
vn 0.0000 -1.0000 0.0000
vn 0.3299 -0.9440 0.0000
vn -0.8031 0.5958 0.0000
vn -0.7699 0.6381 0.0000
vn 0.7699 0.6381 -0.0000
vn 0.8031 0.5959 -0.0000
vn 0.8031 -0.5958 -0.0000
vn 0.8031 -0.5959 0.0000
vn 0.7699 -0.6381 -0.0000
vn 0.7699 -0.6381 0.0001
vn 0.4928 -0.0084 -0.8701
vn -0.6881 0.7256 0.0000
vn -0.8031 -0.5959 -0.0000
vn 0.5245 -0.7069 -0.4745
vn -0.5000 0.0000 0.8660
vn 0.0000 0.0000 -1.0000
vn 0.9916 0.1296 -0.0000
vn -0.0000 0.0000 1.0000
vn -0.5741 0.8188 0.0000
vn -0.5904 0.8071 -0.0000
vn -0.6386 0.7695 -0.0000
vn 0.5000 0.0000 0.8660
vn -0.5000 0.0000 -0.8660
vn -1.0000 0.0000 0.0000
vn 0.4999 -0.0220 -0.8658
vn -0.4999 -0.0220 -0.8658
vn 0.9998 -0.0220 -0.0000
vn -0.4999 -0.0220 0.8658
vn -0.9998 -0.0220 0.0000
vn 0.4999 -0.0220 0.8658
vn -0.4463 0.0864 -0.8907
vn 0.4463 0.0864 0.8907
vn 0.4463 0.0864 -0.8907
vn -0.4463 0.0864 0.8907
vn 0.4479 -0.0123 0.8940
vn 0.4479 -0.0123 -0.8940
vn -0.4479 -0.0123 0.8940
vn -0.4479 -0.0123 -0.8940
usemtl wood
s 1
f 1/1/1 2/2/2 3/3/3
f 4/4/4 5/5/5 6/6/6
f 6/6/6 7/7/7 4/4/4
f 8/8/8 9/9/9 10/10/10
f 10/10/10 11/11/11 8/8/8
f 11/11/11 12/12/8 8/8/8
f 11/11/11 13/13/11 12/12/8
f 13/13/11 14/14/10 12/12/8
f 14/14/10 15/15/9 12/12/8
f 16/16/12 17/17/13 18/18/14
f 18/18/14 19/19/12 16/16/12
f 20/20/12 21/21/14 22/22/13
f 22/22/13 23/23/12 20/20/12
f 24/24/15 25/25/16 20/20/12
f 20/20/12 23/23/12 24/24/15
f 26/26/17 27/27/18 25/25/16
f 25/25/16 24/24/15 26/26/17
f 17/17/13 4/4/4 7/7/7
f 7/7/7 18/18/14 17/17/13
f 28/28/7 29/29/6 30/30/5
f 30/30/5 31/31/4 28/28/7
f 15/15/9 14/14/10 32/32/3
f 32/32/3 33/33/1 15/15/9
f 32/32/3 34/34/2 33/33/1
f 35/35/19 5/5/5 36/36/20
f 36/36/20 37/37/20 35/35/19
f 35/35/19 6/6/6 5/5/5
f 37/37/20 29/29/6 35/35/19
f 37/37/20 30/30/5 29/29/6
f 9/9/9 1/1/1 3/3/3
f 3/3/3 10/10/10 9/9/9
f 38/38/21 39/39/22 40/40/23
f 40/40/23 41/41/24 38/38/21
f 39/39/22 42/42/25 43/43/25
f 43/43/25 44/44/26 39/39/22
f 44/44/26 40/40/23 39/39/22
f 43/43/25 45/45/27 44/44/26
f 43/43/25 46/46/23 45/45/27
f 43/43/25 47/47/22 46/46/23
f 48/48/17 49/49/15 50/50/16
f 50/50/16 51/51/18 48/48/17
f 52/52/28 53/53/28 54/54/28
f 54/54/28 55/55/28 52/52/28
f 56/56/29 57/57/29 58/58/29
f 58/58/29 59/59/29 56/56/29
f 60/60/30 8/8/8 12/12/8
f 12/12/8 61/61/30 60/60/30
f 62/62/28 63/63/28 44/64/28
f 44/64/28 45/65/28 62/62/28
f 64/66/31 65/67/31 54/68/31
f 54/68/31 53/69/31 64/66/31
f 66/70/32 67/71/32 63/72/32
f 63/72/32 68/73/32 66/70/32
f 63/72/32 69/74/32 68/73/32
f 63/72/32 62/75/32 69/74/32
f 62/75/32 70/76/32 69/74/32
f 62/75/32 71/77/32 70/76/32
f 62/75/32 72/78/32 71/77/32
f 73/79/32 66/70/32 68/73/32
f 68/73/32 74/80/32 73/79/32
f 74/80/32 75/81/32 73/79/32
f 74/80/32 76/82/32 75/81/32
f 76/82/32 71/77/32 75/81/32
f 71/77/32 77/83/32 75/81/32
f 71/77/32 72/78/32 77/83/32
f 78/84/33 38/38/21 41/41/24
f 79/85/34 80/86/35 81/87/35
f 81/87/35 82/88/34 79/85/34
f 83/89/36 56/90/37 59/91/37
f 59/91/37 84/92/36 83/89/36
f 85/93/38 86/94/39 87/95/38
f 87/95/38 88/96/40 85/93/38
f 87/95/38 89/97/41 88/96/40
f 87/98/38 90/99/42 89/100/41
f 80/86/35 91/101/43 92/102/43
f 92/102/43 81/87/35 80/86/35
f 93/103/44 60/60/30 61/61/30
f 61/61/30 57/104/44 93/103/44
f 61/61/30 58/105/44 57/104/44
f 61/106/30 94/107/45 58/108/44
f 95/109/24 96/110/21 97/111/33
f 13/112/46 75/113/46 77/114/46
f 77/114/46 14/115/46 13/112/46
f 77/114/46 32/116/46 14/115/46
f 77/114/46 34/117/46 32/116/46
f 93/118/47 57/119/47 56/120/47
f 56/120/47 83/121/47 93/118/47
f 83/121/47 60/122/47 93/118/47
f 83/121/47 8/123/47 60/122/47
f 83/121/47 36/124/47 8/123/47
f 36/124/47 9/125/47 8/123/47
f 36/124/47 5/126/47 9/125/47
f 5/126/47 1/127/47 9/125/47
f 5/126/47 4/128/47 1/127/47
f 4/128/47 2/129/47 1/127/47
f 4/128/47 17/130/47 2/129/47
f 17/130/47 66/131/47 2/129/47
f 17/130/47 67/132/47 66/131/47
f 17/130/47 16/133/47 67/132/47
f 16/133/47 49/134/47 67/132/47
f 49/134/47 78/135/47 67/132/47
f 49/134/47 48/136/47 78/135/47
f 48/136/47 38/137/47 78/135/47
f 48/136/47 98/138/47 38/137/47
f 98/138/47 39/139/47 38/137/47
f 98/138/47 91/140/47 39/139/47
f 91/140/47 42/141/47 39/139/47
f 91/140/47 80/142/47 42/141/47
f 80/142/47 88/143/47 42/141/47
f 80/142/47 79/144/47 88/143/47
f 79/144/47 85/145/47 88/143/47
f 79/144/47 86/146/47 85/145/47
f 42/42/25 88/96/40 89/97/41
f 89/97/41 43/43/25 42/42/25
f 87/147/48 86/148/48 79/149/48
f 79/149/48 82/150/48 87/147/48
f 49/49/15 16/16/12 19/19/12
f 19/19/12 50/50/16 49/49/15
f 34/117/49 77/114/49 72/151/49
f 72/151/49 22/152/49 34/117/49
f 72/151/49 23/153/49 22/152/49
f 72/151/49 24/154/49 23/153/49
f 72/151/49 97/155/49 24/154/49
f 97/155/49 26/156/49 24/154/49
f 97/155/49 96/157/49 26/156/49
f 96/157/49 99/158/49 26/156/49
f 96/157/49 47/159/49 99/158/49
f 47/159/49 92/160/49 99/158/49
f 47/159/49 43/161/49 92/160/49
f 43/161/49 81/162/49 92/160/49
f 43/161/49 89/100/49 81/162/49
f 89/100/49 82/163/49 81/162/49
f 89/100/49 90/99/49 82/163/49
f 90/99/49 87/98/49 82/163/49
f 34/117/49 22/152/49 31/164/49
f 33/165/49 34/117/49 31/164/49
f 33/165/49 31/164/49 30/166/49
f 15/167/49 33/165/49 30/166/49
f 15/167/49 30/166/49 37/168/49
f 12/169/49 15/167/49 37/168/49
f 12/169/49 37/168/49 84/170/49
f 61/106/49 12/169/49 84/170/49
f 61/106/49 84/170/49 59/171/49
f 94/107/49 61/106/49 59/171/49
f 59/171/49 58/108/49 94/107/49
f 99/172/50 100/173/51 27/27/18
f 27/27/18 26/26/17 99/172/50
f 36/36/20 83/89/36 84/92/36
f 84/92/36 37/37/20 36/36/20
f 98/174/50 48/48/17 51/51/18
f 51/51/18 101/175/51 98/174/50
f 102/176/46 103/177/46 104/178/46
f 104/178/46 105/179/46 102/176/46
f 95/109/24 46/46/23 47/47/22
f 47/47/22 96/110/21 95/109/24
f 91/101/43 98/174/50 101/175/51
f 101/175/51 106/180/52 91/101/43
f 106/180/52 92/102/43 91/101/43
f 106/180/52 100/173/51 92/102/43
f 100/173/51 99/172/50 92/102/43
f 21/21/14 28/28/7 31/31/4
f 31/31/4 22/22/13 21/21/14
f 97/155/53 72/151/53 62/181/53
f 62/181/53 95/182/53 97/155/53
f 62/181/53 46/183/53 95/182/53
f 62/181/53 45/184/53 46/183/53
f 107/185/12 65/186/12 108/187/12
f 108/187/12 109/188/12 107/185/12
f 108/187/12 102/189/12 109/188/12
f 102/189/12 110/190/12 109/188/12
f 102/189/12 111/191/12 110/190/12
f 102/189/12 105/192/12 111/191/12
f 54/193/12 65/186/12 107/185/12
f 107/185/12 112/194/12 54/193/12
f 112/194/12 55/195/12 54/193/12
f 111/191/12 105/192/12 55/195/12
f 112/194/12 113/196/12 55/195/12
f 113/196/12 111/191/12 55/195/12
f 66/131/54 73/197/54 11/198/54
f 11/198/54 10/199/54 66/131/54
f 10/199/54 3/200/54 66/131/54
f 3/200/54 2/129/54 66/131/54
f 63/201/31 67/132/31 78/135/31
f 78/135/31 41/202/31 63/201/31
f 41/202/31 40/203/31 63/201/31
f 40/203/31 44/204/31 63/201/31
f 114/205/55 103/206/55 102/207/55
f 102/207/55 108/208/55 114/205/55
f 105/179/53 104/178/53 52/209/53
f 52/209/53 55/210/53 105/179/53
f 73/211/55 75/212/55 13/213/55
f 13/213/55 11/214/55 73/211/55
f 114/215/54 108/216/54 65/67/54
f 65/67/54 64/66/54 114/215/54
f 107/217/56 68/218/56 69/219/56
f 69/219/56 112/220/56 107/217/56
f 109/221/57 74/222/57 68/218/57
f 68/218/57 107/217/57 109/221/57
f 113/223/58 112/224/58 69/225/58
f 69/225/58 70/226/58 113/223/58
f 71/227/59 76/228/59 110/229/59
f 110/229/59 111/230/59 71/227/59
f 109/231/60 110/232/60 76/233/60
f 76/233/60 74/234/60 109/231/60
f 71/227/61 111/230/61 113/235/61
f 113/235/61 70/236/61 71/227/61
usemtl stone
f 115/237/62 116/238/62 117/239/62
f 115/240/32 117/241/32 118/242/32
f 118/242/32 119/243/32 115/240/32
f 116/244/63 119/245/63 118/246/63
f 117/239/64 116/238/64 118/247/64
f 116/244/65 115/248/65 119/245/65
f 119/249/66 20/250/66 25/251/66
f 25/251/66 118/252/66 119/249/66
f 25/251/66 27/253/66 118/252/66
f 27/253/66 100/254/66 118/252/66
f 100/254/66 106/255/66 118/252/66
f 19/256/67 117/257/67 118/258/67
f 118/258/67 50/259/67 19/256/67
f 118/258/67 51/260/67 50/259/67
f 118/258/67 101/261/67 51/260/67
f 118/258/67 106/262/67 101/261/67
f 119/249/68 115/263/68 35/264/68
f 35/264/68 29/265/68 119/249/68
f 29/265/68 28/266/68 119/249/68
f 28/266/68 21/267/68 119/249/68
f 21/267/68 20/250/68 119/249/68
f 35/268/69 115/269/69 117/257/69
f 117/257/69 6/270/69 35/268/69
f 117/257/69 7/271/69 6/270/69
f 117/257/69 18/272/69 7/271/69
f 117/257/69 19/256/69 18/272/69
usemtl _defaultMat
f 114/273/32 64/274/32 53/275/32
f 53/275/32 52/276/32 114/273/32
f 52/276/32 103/277/32 114/273/32
f 52/276/32 104/278/32 103/277/32
