# Generated with liteGL.js by Javi Agenjo

v -1.5416 0.0000 2.0000
v -2.0000 0.0000 1.5416
v -2.0000 1.0000 1.6863
v -2.0000 1.0000 1.6863
v -1.6863 1.0000 2.0000
v -1.5416 0.0000 2.0000
v -2.0000 0.0000 2.0000
v -2.0000 0.0000 1.5416
v -1.5416 0.0000 2.0000
v -2.0000 1.0000 2.0000
v -2.0000 0.0000 2.0000
v -1.5416 0.0000 2.0000
v -1.5416 0.0000 2.0000
v -1.6863 1.0000 2.0000
v -2.0000 1.0000 2.0000
v -2.0000 0.0000 2.0000
v -2.0000 1.0000 2.0000
v -2.0000 1.0000 1.6863
v -2.0000 1.0000 1.6863
v -2.0000 0.0000 1.5416
v -2.0000 0.0000 2.0000
v -1.7491 0.9182 1.8729
v -1.8306 0.9182 1.7914
v -1.8663 0.9591 1.7879
v -1.8663 0.9591 1.7879
v -1.7420 0.9386 1.8961
v -1.7491 0.9182 1.8729
v -1.7420 0.9386 1.8961
v -1.8663 0.9591 1.7879
v -1.6863 1.0000 2.0000
v -1.7179 0.9182 1.9041
v -1.7420 0.9386 1.8961
v -1.6863 1.0000 2.0000
v -1.6863 1.0000 2.0000
v -1.6220 0.9182 2.0000
v -1.7179 0.9182 1.9041
v -1.8663 0.9591 1.7879
v -2.0000 1.0000 1.6863
v -1.6863 1.0000 2.0000
v -2.0000 0.9182 1.6220
v -2.0000 1.0000 1.6863
v -1.8663 0.9591 1.7879
v -1.8663 0.9591 1.7879
v -1.8698 0.9182 1.7522
v -2.0000 0.9182 1.6220
v -2.0000 1.0000 1.6863
v -2.0000 1.0000 2.0000
v -1.6863 1.0000 2.0000

vn 7.0343 1.0183 -7.0343
vn 7.0343 1.0183 -7.0343
vn 7.0343 1.0183 -7.0343
vn 7.0343 1.0183 -7.0343
vn 7.0343 1.0183 -7.0343
vn 7.0343 1.0183 -7.0343
vn 0.0000 -10.0000 0.0000
vn 0.0000 -10.0000 0.0000
vn 0.0000 -10.0000 0.0000
vn 0.0000 0.0000 10.0000
vn 0.0000 0.0000 10.0000
vn 0.0000 0.0000 10.0000
vn 0.0000 0.0000 10.0000
vn 0.0000 0.0000 10.0000
vn 0.0000 0.0000 10.0000
vn -10.0000 0.0000 0.0000
vn -10.0000 0.0000 0.0000
vn -10.0000 0.0000 0.0000
vn -10.0000 0.0000 0.0000
vn -10.0000 0.0000 0.0000
vn -10.0000 0.0000 0.0000
vn 6.1799 4.8597 -6.1799
vn 6.1799 4.8597 -6.1799
vn 6.1799 4.8597 -6.1799
vn 6.1799 4.8597 -6.1799
vn 6.1799 4.8597 -6.1799
vn 6.1799 4.8597 -6.1799
vn 6.1799 4.8597 -6.1799
vn 6.1799 4.8597 -6.1799
vn 6.1799 4.8597 -6.1799
vn 6.1799 4.8597 -6.1799
vn 6.1799 4.8597 -6.1799
vn 6.1799 4.8597 -6.1799
vn 6.1799 4.8597 -6.1799
vn 6.1799 4.8597 -6.1799
vn 6.1799 4.8597 -6.1799
vn 6.1799 4.8597 -6.1799
vn 6.1799 4.8597 -6.1799
vn 6.1799 4.8597 -6.1799
vn 6.1799 4.8597 -6.1799
vn 6.1799 4.8597 -6.1799
vn 6.1799 4.8597 -6.1799
vn 6.1799 4.8597 -6.1799
vn 6.1799 4.8597 -6.1799
vn 6.1799 4.8597 -6.1799
vn 0.0000 10.0000 0.0000
vn 0.0000 10.0000 0.0000
vn 0.0000 10.0000 0.0000

vt 0.2500 0.5000  0.0000
vt 0.2500 0.5000  0.0000
vt 0.2500 0.5000  0.0000
vt 0.2500 0.5000  0.0000
vt 0.2500 0.5000  0.0000
vt 0.2500 0.5000  0.0000
vt 0.2500 0.5000  0.0000
vt 0.2500 0.5000  0.0000
vt 0.2500 0.5000  0.0000
vt 0.2500 0.5000  0.0000
vt 0.2500 0.5000  0.0000
vt 0.2500 0.5000  0.0000
vt 0.2500 0.5000  0.0000
vt 0.2500 0.5000  0.0000
vt 0.2500 0.5000  0.0000
vt 0.2500 0.5000  0.0000
vt 0.2500 0.5000  0.0000
vt 0.2500 0.5000  0.0000
vt 0.2500 0.5000  0.0000
vt 0.2500 0.5000  0.0000
vt 0.2500 0.5000  0.0000
vt 0.7500 0.5000  0.0000
vt 0.7500 0.5000  0.0000
vt 0.7500 0.5000  0.0000
vt 0.7500 0.5000  0.0000
vt 0.7500 0.5000  0.0000
vt 0.7500 0.5000  0.0000
vt 0.7500 0.5000  0.0000
vt 0.7500 0.5000  0.0000
vt 0.7500 0.5000  0.0000
vt 0.7500 0.5000  0.0000
vt 0.7500 0.5000  0.0000
vt 0.7500 0.5000  0.0000
vt 0.7500 0.5000  0.0000
vt 0.7500 0.5000  0.0000
vt 0.7500 0.5000  0.0000
vt 0.7500 0.5000  0.0000
vt 0.7500 0.5000  0.0000
vt 0.7500 0.5000  0.0000
vt 0.7500 0.5000  0.0000
vt 0.7500 0.5000  0.0000
vt 0.7500 0.5000  0.0000
vt 0.7500 0.5000  0.0000
vt 0.7500 0.5000  0.0000
vt 0.7500 0.5000  0.0000
vt 0.7500 0.5000  0.0000
vt 0.7500 0.5000  0.0000
vt 0.7500 0.5000  0.0000
g mesh_0
usemtl mat_1
f 1/1/1 2/2/2 3/3/3
f 4/4/4 5/5/5 6/6/6
f 7/7/7 8/8/8 9/9/9
f 10/10/10 11/11/11 12/12/12
f 13/13/13 14/14/14 15/15/15
f 16/16/16 17/17/17 18/18/18
f 19/19/19 20/20/20 21/21/21
g mesh_1
usemtl mat_2
f 22/22/22 23/23/23 24/24/24
f 25/25/25 26/26/26 27/27/27
f 28/28/28 29/29/29 30/30/30
f 31/31/31 32/32/32 33/33/33
f 34/34/34 35/35/35 36/36/36
f 37/37/37 38/38/38 39/39/39
f 40/40/40 41/41/41 42/42/42
f 43/43/43 44/44/44 45/45/45
f 46/46/46 47/47/47 48/48/48